<?xml version="1.0" standalone="no"?>
<!DOCTYPE svg PUBLIC "-//W3C//DTD SVG 20010904//EN"
 "http://www.w3.org/TR/2001/REC-SVG-20010904/DTD/svg10.dtd">
<svg version="1.0" xmlns="http://www.w3.org/2000/svg"
 width="1024.000000pt" height="1024.000000pt" viewBox="0 0 1024.000000 1024.000000"
 preserveAspectRatio="xMidYMid meet">

<g transform="translate(0.000000,1024.000000) scale(0.100000,-0.100000)"
fill="#000000" stroke="none">
<path d="M4615 8495 c-5 -2 -22 -6 -38 -9 -15 -4 -45 -23 -67 -42 -47 -42 -54
-63 -110 -324 -23 -104 -48 -196 -58 -209 -10 -14 -38 -31 -63 -39 -211 -69
-390 -145 -581 -248 l-67 -36 -63 48 c-35 27 -105 81 -155 121 -95 75 -120 90
-87 51 l19 -23 -22 19 c-13 10 -21 22 -18 26 7 11 -37 46 -74 59 -101 34 -120
20 -489 -345 -282 -278 -355 -356 -310 -328 7 4 8 3 4 -5 -4 -6 -11 -9 -16 -6
-10 6 -76 -62 -97 -99 -19 -33 -15 -102 8 -147 11 -22 69 -105 129 -184 61
-78 114 -156 120 -171 10 -25 3 -44 -68 -183 -69 -135 -98 -206 -179 -429 -9
-24 -24 -47 -33 -52 -9 -5 -91 -25 -181 -45 -247 -53 -251 -54 -292 -81 -23
-15 -46 -42 -58 -67 -17 -40 -19 -73 -19 -591 0 -540 0 -550 21 -594 13 -25
37 -54 61 -69 39 -26 185 -66 361 -99 48 -9 96 -24 106 -33 10 -9 33 -61 51
-116 44 -137 98 -263 175 -412 36 -69 65 -131 65 -136 0 -6 -53 -79 -117 -164
-65 -84 -128 -170 -140 -191 -26 -43 -30 -107 -9 -155 8 -18 172 -190 378
-394 392 -390 420 -412 497 -398 49 9 83 30 198 123 54 43 127 100 161 127
l64 49 46 -27 c121 -72 370 -186 505 -232 114 -38 154 -56 168 -75 10 -14 36
-108 59 -210 55 -247 65 -283 97 -321 59 -69 51 -69 608 -69 322 0 514 4 538
11 85 23 129 89 157 234 32 167 83 351 102 367 11 10 50 27 86 38 168 51 315
115 494 212 105 57 130 67 147 59 10 -6 94 -69 186 -141 204 -158 242 -172
340 -122 37 19 751 727 771 764 8 15 14 49 14 77 0 45 -5 56 -57 124 -191 248
-233 304 -233 314 0 6 37 87 83 180 45 92 102 227 126 298 51 151 65 181 89
194 9 5 76 21 147 36 313 63 345 77 384 158 21 42 21 55 21 588 0 507 -2 547
-19 584 -37 80 -80 103 -263 140 -206 42 -281 62 -294 80 -7 9 -31 71 -54 138
-22 67 -82 204 -132 305 l-92 183 18 33 c9 18 71 100 138 182 146 180 155 198
138 274 -14 62 -22 71 -535 572 -209 204 -246 236 -286 247 -59 16 -113 3
-171 -44 -186 -148 -321 -245 -342 -245 -13 0 -61 21 -106 46 -113 64 -326
156 -462 200 -112 37 -141 53 -159 86 -5 9 -29 111 -54 227 -54 259 -61 272
-145 317 -33 18 -68 19 -545 21 -280 1 -514 0 -520 -2z m2621 -707 l29 -33
-32 29 c-31 28 -38 36 -30 36 2 0 16 -15 33 -32z m55 -55 c13 -16 12 -17 -3
-4 -10 7 -18 15 -18 17 0 8 8 3 21 -13z m-4371 -36 c0 -2 -12 -14 -27 -28
l-28 -24 24 28 c23 25 31 32 31 24z m4456 -49 l29 -33 -32 29 c-31 28 -38 36
-30 36 2 0 16 -15 33 -32z m-4526 -21 c0 -2 -12 -14 -27 -28 l-28 -24 24 28
c23 25 31 32 31 24z m-100 -100 c0 -2 -10 -12 -22 -23 l-23 -19 19 23 c18 21
26 27 26 19z m2750 -77 c278 -46 476 -111 722 -236 640 -325 1112 -952 1247
-1654 223 -1164 -483 -2327 -1624 -2675 -239 -73 -461 -105 -726 -105 -343 0
-616 52 -924 177 -783 318 -1340 1036 -1440 1857 -18 148 -21 437 -5 573 59
521 280 986 650 1367 372 384 861 629 1395 700 66 9 134 18 150 20 80 12 435
-4 555 -24z m-2880 -53 c0 -2 -10 -12 -22 -23 l-23 -19 19 23 c18 21 26 27 26
19z m4131 -524 c13 -16 12 -17 -3 -4 -10 7 -18 15 -18 17 0 8 8 3 21 -13z
m-3291 -37 c0 -2 -8 -10 -17 -17 -16 -13 -17 -12 -4 4 13 16 21 21 21 13z
m3345 -16 c10 -11 16 -20 13 -20 -3 0 -13 9 -23 20 -10 11 -16 20 -13 20 3 0
13 -9 23 -20z m1682 -1207 c-3 -10 -5 -4 -5 12 0 17 2 24 5 18 2 -7 2 -21 0
-30z m0 -750 c-1 -125 -2 -25 -2 222 0 248 1 350 2 228 2 -122 2 -324 0 -450z
m-960 375 c-3 -7 -5 -2 -5 12 0 14 2 19 5 13 2 -7 2 -19 0 -25z m0 -230 c-3
-7 -5 -2 -5 12 0 14 2 19 5 13 2 -7 2 -19 0 -25z m-5152 -1858 c10 -11 16 -20
13 -20 -3 0 -13 9 -23 20 -10 11 -16 20 -13 20 3 0 13 -9 23 -20z m86 -87 c13
-16 12 -17 -3 -4 -10 7 -18 15 -18 17 0 8 8 3 21 -13z m150 -150 c13 -16 12
-17 -3 -4 -17 13 -22 21 -14 21 2 0 10 -8 17 -17z m3006 -109 c-3 -3 -12 -4
-19 -1 -8 3 -5 6 6 6 11 1 17 -2 13 -5z m-50 -10 c-3 -3 -12 -4 -19 -1 -8 3
-5 6 6 6 11 1 17 -2 13 -5z m-2797 -39 c13 -14 21 -25 18 -25 -2 0 -15 11 -28
25 -13 14 -21 25 -18 25 2 0 15 -11 28 -25z"/>
<path d="M5085 7090 c-47 -10 -84 -39 -106 -83 -19 -36 -20 -55 -17 -241 l3
-203 28 -36 c15 -21 42 -44 59 -53 43 -22 125 -15 168 16 54 39 60 66 60 287
0 186 -2 200 -23 237 -12 22 -28 42 -36 44 -9 3 -11 0 -6 -8 5 -9 4 -11 -4 -6
-6 4 -9 11 -6 16 3 5 1 11 -3 14 -20 12 -89 22 -117 16z m155 -564 c0 -2 -8
-10 -17 -17 -16 -13 -17 -12 -4 4 13 16 21 21 21 13z"/>
<path d="M6362 6619 c-41 -16 -67 -40 -529 -500 l-452 -449 -78 26 c-96 32
-207 41 -299 24 -82 -16 -120 -30 -195 -76 l-57 -34 -248 243 c-516 504 -516
504 -615 495 -119 -12 -192 -134 -140 -237 20 -39 340 -362 677 -685 l122
-116 -15 -48 c-21 -63 -21 -212 0 -280 62 -203 228 -366 428 -418 133 -35 303
-18 424 43 128 65 223 164 287 299 72 154 74 299 6 447 -17 37 -28 71 -24 75
224 222 899 916 919 945 32 47 34 86 8 142 -40 88 -141 136 -219 104z m-1125
-1260 c52 -25 97 -71 123 -124 25 -51 27 -149 5 -203 -20 -47 -78 -107 -130
-135 -56 -30 -174 -30 -230 0 -169 90 -195 321 -50 435 75 59 193 70 282 27z
m-140 -505 c-3 -3 -12 -4 -19 -1 -8 3 -5 6 6 6 11 1 17 -2 13 -5z"/>
<path d="M3176 5300 c-39 -12 -83 -56 -97 -98 -24 -72 16 -161 85 -193 36 -16
68 -19 276 -19 220 0 237 1 269 21 112 68 117 213 9 279 -31 18 -50 20 -273
19 -132 0 -253 -5 -269 -9z m565 -47 c13 -16 12 -17 -3 -4 -10 7 -18 15 -18
17 0 8 8 3 21 -13z"/>
<path d="M6530 5288 c-48 -33 -72 -70 -77 -119 -6 -61 28 -126 82 -156 38 -22
51 -23 271 -23 224 0 232 1 275 24 26 13 43 30 43 39 -1 9 3 15 9 14 6 -1 18
18 25 42 17 50 7 100 -30 146 -40 50 -66 55 -326 55 -231 0 -240 -1 -272 -22z
m581 -35 c13 -16 12 -17 -3 -4 -10 7 -18 15 -18 17 0 8 8 3 21 -13z m-474
-249 c-3 -3 -12 -4 -19 -1 -8 3 -5 6 6 6 11 1 17 -2 13 -5z m256 -1 c-7 -2
-19 -2 -25 0 -7 3 -2 5 12 5 14 0 19 -2 13 -5z"/>
<path d="M5058 3867 c-14 -7 -36 -21 -48 -32 -45 -39 -50 -71 -50 -292 0 -191
2 -210 21 -251 39 -80 132 -112 214 -72 79 38 85 60 85 323 0 216 -1 225 -22
257 -13 18 -35 42 -50 53 -32 24 -112 31 -150 14z"/>
</g>
</svg>
